<svg width="20" height="21" viewBox="0 0 20 21" fill="none" xmlns="http://www.w3.org/2000/svg">
<g clip-path="url(#clip0_409_124)">
<path d="M16.675 13.3167C15.65 13.3167 14.6583 13.15 13.7333 12.85C13.4417 12.75 13.1167 12.825 12.8917 13.05L11.5833 14.6917C9.225 13.5667 7.01667 11.4417 5.84167 9L7.46667 7.61667C7.69167 7.38333 7.75833 7.05833 7.66667 6.76667C7.35833 5.84167 7.2 4.85 7.2 3.825C7.2 3.375 6.825 3 6.375 3H3.49167C3.04167 3 2.5 3.2 2.5 3.825C2.5 11.5667 8.94167 18 16.675 18C17.2667 18 17.5 17.475 17.5 17.0167V14.1417C17.5 13.6917 17.125 13.3167 16.675 13.3167Z" fill="#C2B383"/>
</g>
<defs>
<clipPath id="clip0_409_124">
<rect width="20" height="20" fill="white" transform="translate(0 0.5)"/>
</clipPath>
</defs>
</svg>
