<svg width="720" height="720" viewBox="0 0 720 720" fill="none" xmlns="http://www.w3.org/2000/svg">
<g opacity="0.05">
<path d="M462.857 282.855L385.715 205.713L437.143 154.285L385.715 102.857L411.429 77.1425L462.857 128.571L514.286 77.1425L540 102.857L488.571 154.285L540 205.713L514.286 231.427L462.857 179.999L437.143 205.713L488.571 257.141L462.857 282.855Z" fill="url(#paint0_linear_246_379)"/>
<path d="M694.281 257.142L617.139 180L565.71 231.428L514.282 180L488.568 205.714L539.996 257.142L488.568 308.57L514.282 334.285L565.71 282.856L617.139 334.285L642.853 308.57L591.424 257.142L617.139 231.428L668.567 282.856L694.281 257.142Z" fill="url(#paint1_linear_246_379)"/>
<path d="M488.575 51.4304L411.432 128.573L385.718 102.859L462.86 25.7163L488.575 51.4304Z" fill="url(#paint2_linear_246_379)"/>
<path d="M385.715 154.285L360 179.999L334.286 154.285L360 128.571L385.715 154.285Z" fill="url(#paint3_linear_246_379)"/>
<path d="M257.145 437.145L334.287 514.287L282.859 565.715L334.287 617.143L308.573 642.857L257.145 591.429L205.717 642.857L180.002 617.143L231.431 565.715L180.002 514.287L205.717 488.573L257.145 540.001L282.859 514.287L231.431 462.859L257.145 437.145Z" fill="url(#paint4_linear_246_379)"/>
<path d="M25.7154 462.858L102.858 540L154.286 488.572L205.715 540L231.429 514.286L180 462.858L231.429 411.429L205.715 385.715L154.286 437.144L102.858 385.715L77.1437 411.429L128.572 462.858L102.858 488.572L51.4295 437.144L25.7154 462.858Z" fill="url(#paint5_linear_246_379)"/>
<path d="M231.427 668.57L308.57 591.427L334.284 617.141L257.142 694.284L231.427 668.57Z" fill="url(#paint6_linear_246_379)"/>
<path d="M334.287 565.715L360.002 540.001L385.716 565.715L360.002 591.429L334.287 565.715Z" fill="url(#paint7_linear_246_379)"/>
<path d="M437.138 462.859L514.28 385.717L565.708 437.145L617.137 385.717L642.851 411.431L591.423 462.859L642.851 514.288L617.137 540.002L565.708 488.573L514.28 540.002L488.566 514.288L539.994 462.859L514.28 437.145L462.852 488.573L437.138 462.859Z" fill="url(#paint8_linear_246_379)"/>
<path d="M282.857 257.145L205.715 334.287L154.286 282.859L102.858 334.287L77.1437 308.573L128.572 257.145L77.1438 205.716L102.858 180.002L154.286 231.431L205.715 180.002L231.429 205.716L180 257.145L205.715 282.859L257.143 231.431L282.857 257.145Z" fill="url(#paint9_linear_246_379)"/>
<path d="M565.708 385.717L539.994 360.003L565.708 334.289L591.423 360.003L565.708 385.717Z" fill="url(#paint10_linear_246_379)"/>
<path d="M462.859 694.286L540.001 617.143L488.573 565.715L540.001 514.287L514.287 488.573L462.859 540.001L411.43 488.573L385.716 514.287L437.145 565.715L385.716 617.143L411.43 642.857L462.859 591.429L488.573 617.143L437.145 668.571L462.859 694.286Z" fill="url(#paint11_linear_246_379)"/>
<path d="M257.146 25.7143L180.004 102.857L231.432 154.285L180.004 205.713L205.718 231.427L257.146 179.999L308.575 231.427L334.289 205.713L282.861 154.285L334.289 102.857L308.575 77.1425L257.146 128.571L231.432 102.857L282.861 51.4284L257.146 25.7143Z" fill="url(#paint12_linear_246_379)"/>
<path d="M668.571 488.572L591.429 411.429L617.143 385.715L694.285 462.857L668.571 488.572Z" fill="url(#paint13_linear_246_379)"/>
<path d="M51.4288 231.432L128.571 308.575L102.857 334.289L25.7146 257.146L51.4288 231.432Z" fill="url(#paint14_linear_246_379)"/>
<path d="M154.286 334.287L180 360.001L154.286 385.715L128.572 360.001L154.286 334.287Z" fill="url(#paint15_linear_246_379)"/>
<path d="M154.286 334.287L180 360.001L154.286 385.715L128.572 360.001L154.286 334.287Z" fill="url(#paint16_linear_246_379)"/>
<path d="M77.1426 360.002L25.7142 308.574L0 334.288L25.7142 360.002L0 385.716L25.7142 411.43L77.1426 360.002Z" fill="url(#paint17_linear_246_379)"/>
<path d="M359.999 77.1441L411.428 25.7159L385.714 0.00180817L359.999 25.7159L334.285 0.00180817L308.571 25.7158L359.999 77.1441Z" fill="url(#paint18_linear_246_379)"/>
<path d="M642.857 360.002L694.286 411.43L720 385.716L694.286 360.002L720 334.288L694.286 308.574L642.857 360.002Z" fill="url(#paint19_linear_246_379)"/>
<path d="M360 642.856L308.572 694.284L334.286 719.998L360 694.284L385.714 719.998L411.428 694.284L360 642.856Z" fill="url(#paint20_linear_246_379)"/>
</g>
<defs>
<linearGradient id="paint0_linear_246_379" x1="720" y1="360" x2="-1.07288e-05" y2="360" gradientUnits="userSpaceOnUse">
<stop stop-color="#AE863C"/>
<stop offset="1" stop-color="#483719"/>
</linearGradient>
<linearGradient id="paint1_linear_246_379" x1="720" y1="360" x2="-1.07288e-05" y2="360" gradientUnits="userSpaceOnUse">
<stop stop-color="#AE863C"/>
<stop offset="1" stop-color="#483719"/>
</linearGradient>
<linearGradient id="paint2_linear_246_379" x1="720" y1="360" x2="-1.07288e-05" y2="360" gradientUnits="userSpaceOnUse">
<stop stop-color="#AE863C"/>
<stop offset="1" stop-color="#483719"/>
</linearGradient>
<linearGradient id="paint3_linear_246_379" x1="720" y1="360" x2="-1.07288e-05" y2="360" gradientUnits="userSpaceOnUse">
<stop stop-color="#AE863C"/>
<stop offset="1" stop-color="#483719"/>
</linearGradient>
<linearGradient id="paint4_linear_246_379" x1="720" y1="360" x2="-1.07288e-05" y2="360" gradientUnits="userSpaceOnUse">
<stop stop-color="#AE863C"/>
<stop offset="1" stop-color="#483719"/>
</linearGradient>
<linearGradient id="paint5_linear_246_379" x1="720" y1="360" x2="-1.07288e-05" y2="360" gradientUnits="userSpaceOnUse">
<stop stop-color="#AE863C"/>
<stop offset="1" stop-color="#483719"/>
</linearGradient>
<linearGradient id="paint6_linear_246_379" x1="720" y1="360" x2="-1.07288e-05" y2="360" gradientUnits="userSpaceOnUse">
<stop stop-color="#AE863C"/>
<stop offset="1" stop-color="#483719"/>
</linearGradient>
<linearGradient id="paint7_linear_246_379" x1="720" y1="360" x2="-1.07288e-05" y2="360" gradientUnits="userSpaceOnUse">
<stop stop-color="#AE863C"/>
<stop offset="1" stop-color="#483719"/>
</linearGradient>
<linearGradient id="paint8_linear_246_379" x1="720" y1="360" x2="-1.07288e-05" y2="360" gradientUnits="userSpaceOnUse">
<stop stop-color="#AE863C"/>
<stop offset="1" stop-color="#483719"/>
</linearGradient>
<linearGradient id="paint9_linear_246_379" x1="720" y1="360" x2="-1.07288e-05" y2="360" gradientUnits="userSpaceOnUse">
<stop stop-color="#AE863C"/>
<stop offset="1" stop-color="#483719"/>
</linearGradient>
<linearGradient id="paint10_linear_246_379" x1="720" y1="360" x2="-1.07288e-05" y2="360" gradientUnits="userSpaceOnUse">
<stop stop-color="#AE863C"/>
<stop offset="1" stop-color="#483719"/>
</linearGradient>
<linearGradient id="paint11_linear_246_379" x1="720" y1="360" x2="-1.07288e-05" y2="360" gradientUnits="userSpaceOnUse">
<stop stop-color="#AE863C"/>
<stop offset="1" stop-color="#483719"/>
</linearGradient>
<linearGradient id="paint12_linear_246_379" x1="720" y1="360" x2="-1.07288e-05" y2="360" gradientUnits="userSpaceOnUse">
<stop stop-color="#AE863C"/>
<stop offset="1" stop-color="#483719"/>
</linearGradient>
<linearGradient id="paint13_linear_246_379" x1="720" y1="360" x2="-1.07288e-05" y2="360" gradientUnits="userSpaceOnUse">
<stop stop-color="#AE863C"/>
<stop offset="1" stop-color="#483719"/>
</linearGradient>
<linearGradient id="paint14_linear_246_379" x1="720" y1="360" x2="-1.07288e-05" y2="360" gradientUnits="userSpaceOnUse">
<stop stop-color="#AE863C"/>
<stop offset="1" stop-color="#483719"/>
</linearGradient>
<linearGradient id="paint15_linear_246_379" x1="720" y1="360" x2="-1.07288e-05" y2="360" gradientUnits="userSpaceOnUse">
<stop stop-color="#AE863C"/>
<stop offset="1" stop-color="#483719"/>
</linearGradient>
<linearGradient id="paint16_linear_246_379" x1="720" y1="360" x2="-1.07288e-05" y2="360" gradientUnits="userSpaceOnUse">
<stop stop-color="#AE863C"/>
<stop offset="1" stop-color="#483719"/>
</linearGradient>
<linearGradient id="paint17_linear_246_379" x1="720" y1="360" x2="-1.07288e-05" y2="360" gradientUnits="userSpaceOnUse">
<stop stop-color="#AE863C"/>
<stop offset="1" stop-color="#483719"/>
</linearGradient>
<linearGradient id="paint18_linear_246_379" x1="720" y1="360" x2="-1.07288e-05" y2="360" gradientUnits="userSpaceOnUse">
<stop stop-color="#AE863C"/>
<stop offset="1" stop-color="#483719"/>
</linearGradient>
<linearGradient id="paint19_linear_246_379" x1="720" y1="360" x2="-1.07288e-05" y2="360" gradientUnits="userSpaceOnUse">
<stop stop-color="#AE863C"/>
<stop offset="1" stop-color="#483719"/>
</linearGradient>
<linearGradient id="paint20_linear_246_379" x1="720" y1="360" x2="-1.07288e-05" y2="360" gradientUnits="userSpaceOnUse">
<stop stop-color="#AE863C"/>
<stop offset="1" stop-color="#483719"/>
</linearGradient>
</defs>
</svg>
