<svg width="176" height="86" viewBox="0 0 176 86" fill="none" xmlns="http://www.w3.org/2000/svg">
<path d="M36.6429 66.1427L30.8573 60.357L28.9284 62.2857L34.7144 68.0712L36.6429 66.1427Z" fill="#C1A461"/>
<path d="M36.6429 66.1427L30.8573 60.357L28.9284 62.2857L34.7144 68.0712L36.6429 66.1427Z" fill="#AE863C"/>
<path d="M28.9284 58.4286L26.9999 56.5L25.0713 58.4286L26.9999 60.3571L28.9284 58.4286Z" fill="#C1A461"/>
<path d="M28.9284 58.4286L26.9999 56.5L25.0713 58.4286L26.9999 60.3571L28.9284 58.4286Z" fill="#AE863C"/>
<path d="M17.3571 19.8574L23.1427 25.6431L25.0716 23.7144L19.2856 17.9288L17.3571 19.8574Z" fill="#AE863C"/>
<path d="M25.0716 27.5715L27.0001 29.5001L28.9287 27.5715L27.0001 25.643L25.0716 27.5715Z" fill="#AE863C"/>
<path d="M42.4281 41.0714L40.4996 43L42.4281 44.9285L44.3567 43L42.4281 41.0714Z" fill="#C1A461"/>
<path d="M50.1428 33.3573L44.3571 39.143L46.2853 41.0714L52.0714 35.2859L50.1428 33.3573Z" fill="#C1A461"/>
<path d="M3.85716 52.6428L9.64285 46.8571L7.71434 44.9287L1.9286 50.7142L3.85716 52.6428Z" fill="#C1A461"/>
<path d="M11.5715 44.9287L13.5 43.0001L11.5715 41.0716L9.64291 43.0001L11.5715 44.9287Z" fill="#C1A461"/>
<path d="M11.5715 44.9287L13.5 43.0001L11.5715 41.0716L9.64291 43.0001L11.5715 44.9287Z" fill="#C1A461"/>
<path d="M5.78569 43L1.92856 46.8572L0 44.9286L1.92856 43L0 41.0715L1.92856 39.1429L5.78569 43Z" fill="#D7C896"/>
<path d="M27 64.2142L30.8571 68.0713L28.9286 69.9998L27 68.0713L25.0714 69.9998L23.1429 68.0713L27 64.2142Z" fill="#D7C896"/>
<path d="M48.2143 43L52.0714 39.1429L54 41.0715L52.0714 43L54 44.9286L52.0714 46.8572L48.2143 43Z" fill="#D7C896"/>
<path d="M27 21.7859L23.1429 17.9288L25.0714 16.0002L27 17.9288L28.9286 16.0002L30.8571 17.9288L27 21.7859Z" fill="#D7C896"/>
<path fill-rule="evenodd" clip-rule="evenodd" d="M25.0716 31.4286L19.2859 37.2143L17.3573 35.2858L21.2144 31.4286L19.2859 29.5001L15.4287 33.3572L17.3572 31.4287L15.4286 29.5002L17.3573 27.5715L13.5002 23.7144L15.4287 21.7858L19.2859 25.643L23.143 21.7858L25.0716 23.7144L21.2144 27.5715L25.0716 31.4286ZM15.4286 29.5002L13.5002 31.4286L15.4287 33.3572L13.5 35.2858L17.3572 39.143L15.4286 41.0715L11.5715 37.2144L7.71434 41.0715L5.78578 39.143L9.64291 35.2858L7.71434 33.3573L3.85722 37.2144L1.92865 35.2858L7.71434 29.5002L11.5715 33.3573L15.4286 29.5002Z" fill="#AE863C"/>
<path d="M15.4286 29.5002L13.5002 31.4286L15.4287 33.3572L17.3572 31.4287L15.4286 29.5002Z" fill="#AE863C"/>
<path fill-rule="evenodd" clip-rule="evenodd" d="M40.5001 23.7144L34.7144 17.9287L32.7858 19.8573L36.643 23.7144L34.7144 25.643L30.8573 21.7858L28.9287 23.7144L32.7858 27.5715L28.9287 31.4286L30.8573 33.3572L34.7144 29.5001L36.6424 31.4286L40.4996 35.2857L38.571 37.2143L34.7139 33.3572L32.7853 35.2857L38.571 41.0714L42.4281 37.2143L46.2853 41.0714L48.2138 39.1428L44.3567 35.2857L48.2138 31.4286L46.2853 29.5L42.4281 33.3572L40.5001 31.4286L36.643 27.5715L40.5001 23.7144ZM40.5001 31.4286L38.5715 33.3572L36.6424 31.4286L38.571 29.5L40.5001 31.4286Z" fill="#C1A461"/>
<path d="M40.5001 31.4286L38.571 29.5L36.6424 31.4286L38.5715 33.3572L40.5001 31.4286Z" fill="#C1A461"/>
<path fill-rule="evenodd" clip-rule="evenodd" d="M46.2853 56.4999L52.071 50.7142L50.1424 48.7857L46.2853 52.6428L44.3567 50.7142L48.2138 46.8571L46.2853 44.9286L42.4281 48.7857L38.571 44.9286L36.6424 46.8571L40.4996 50.7142L36.6424 54.5714L34.7141 56.5L32.7856 54.5714L36.6427 50.7143L34.7141 48.7858L28.9284 54.5714L32.7856 58.4286L28.9284 62.2857L30.857 64.2143L34.7141 60.3571L38.5713 64.2143L40.4998 62.2857L36.6427 58.4286L40.4998 54.5714L42.4281 52.6428L46.2853 56.4999ZM40.4998 54.5714L38.571 56.4999L36.6424 54.5714L38.5713 52.6429L40.4998 54.5714Z" fill="#C1A461"/>
<path fill-rule="evenodd" clip-rule="evenodd" d="M46.2853 56.4999L52.071 50.7142L50.1424 48.7857L46.2853 52.6428L44.3567 50.7142L48.2138 46.8571L46.2853 44.9286L42.4281 48.7857L38.571 44.9286L36.6424 46.8571L40.4996 50.7142L36.6424 54.5714L34.7141 56.5L32.7856 54.5714L36.6427 50.7143L34.7141 48.7858L28.9284 54.5714L32.7856 58.4286L28.9284 62.2857L30.857 64.2143L34.7141 60.3571L38.5713 64.2143L40.4998 62.2857L36.6427 58.4286L40.4998 54.5714L42.4281 52.6428L46.2853 56.4999ZM40.4998 54.5714L38.571 56.4999L36.6424 54.5714L38.5713 52.6429L40.4998 54.5714Z" fill="#AE863C"/>
<path fill-rule="evenodd" clip-rule="evenodd" d="M15.4286 44.9287L21.2143 50.7144L19.2857 52.6429L15.4286 48.7858L13.5 50.7144L15.4287 52.6429L13.5001 54.5714L15.4286 56.5001L11.5715 52.6429L7.71435 56.5001L5.78578 54.5715L9.64291 50.7144L5.78578 46.8572L7.71434 44.9287L11.5715 48.7858L15.4286 44.9287ZM15.4286 56.5001L17.3572 54.5715L15.4287 52.6429L19.2858 56.5L23.1429 52.6429L25.0715 54.5714L21.2144 58.4286L25.0715 62.2857L23.1429 64.2143L19.2858 60.3571L17.3572 62.2857L21.2144 66.1428L19.2858 68.0714L13.5001 62.2857L17.3572 58.4286L15.4286 56.5001Z" fill="#C1A461"/>
<path d="M15.4286 56.5001L17.3572 54.5715L15.4287 52.6429L13.5001 54.5714L15.4286 56.5001Z" fill="#C1A461"/>
<path d="M40.4998 54.5714L38.5713 52.6429L36.6424 54.5714L38.571 56.4999L40.4998 54.5714Z" fill="#AE863C"/>
<path d="M67.036 18.5H69.094V29H67.036V18.5ZM77.2269 22.812C78.9069 23.162 80.2369 23.764 80.2369 25.794C80.2369 28.216 78.2489 29.196 75.8689 29.196C74.4129 29.196 72.0049 28.608 71.9909 25.57H73.6849C73.6849 26.522 74.2869 27.39 76.0649 27.39C77.3669 27.39 78.3329 26.83 78.3329 26.046C78.3329 25.08 77.4649 24.842 75.4209 24.492C73.6009 24.198 72.0189 23.568 72.0189 21.566C72.0189 19.55 73.4749 18.332 75.8689 18.332C78.3049 18.332 79.6629 19.452 79.8029 21.538H77.9269C77.9269 20.712 77.0169 20.138 75.8549 20.138C74.6789 20.138 73.9089 20.488 73.9089 21.328C73.9089 22.196 75.0989 22.336 77.2269 22.812ZM83.0684 18.5H85.1404V27.054H89.6624V29H83.0684V18.5ZM95.3934 18.5H98.0114L101.693 29H99.3554L98.7114 26.9H94.5254L93.7974 29H91.6414L95.3934 18.5ZM95.0014 25.206H98.2774L96.5974 20.404L95.0014 25.206ZM104.216 18.5H107.128L109.788 25.472L112.504 18.5H115.346V29H113.4V20.992L110.278 29H109.102L106.162 20.95V29H104.216V18.5ZM118.757 18.5H120.815V29H118.757V18.5ZM132.168 24.926H134.156C134.044 27.474 132.266 29.154 129.312 29.154C125.938 29.154 123.852 27.082 123.852 23.862V23.61C123.852 20.404 125.994 18.36 129.214 18.36C131.874 18.36 133.918 19.998 134.072 22.378H132.084C131.804 21.146 130.852 20.306 129.172 20.306C127.184 20.306 125.868 21.538 125.826 23.484V23.764C125.826 25.864 127.114 27.222 129.172 27.222C130.978 27.222 132.042 26.27 132.168 24.926ZM66.952 36.5H73.63V38.418H69.01V41.176H72.832V42.954H69.01V47H66.952V36.5ZM81.182 47.154C77.962 47.154 75.918 45.068 75.918 41.82V41.582C75.96 38.404 78.046 36.332 81.168 36.332C84.262 36.332 86.348 38.376 86.404 41.512V41.82C86.404 45.068 84.36 47.154 81.182 47.154ZM81.168 45.208C83.072 45.208 84.346 43.85 84.346 41.82V41.512C84.318 39.594 83.016 38.264 81.168 38.264C79.278 38.264 78.004 39.58 77.976 41.512V41.82C77.976 43.878 79.236 45.208 81.168 45.208ZM89.2455 43.024V36.5H91.3175V42.73C91.3175 44.214 91.7655 45.152 93.7115 45.152C95.6015 45.138 95.8815 44.228 95.8815 42.674V36.5H97.9815V42.968C97.9815 45.712 96.5535 47.084 93.7115 47.084C90.8555 47.084 89.2455 45.628 89.2455 43.024ZM101.162 36.5H103.64L108.106 43.654V36.5H110.052V47H108.092L103.108 39.048V47H101.162V36.5ZM113.419 36.5H117.297C120.209 36.5 122.099 38.656 122.183 41.568V41.834C122.183 44.872 120.377 47 117.283 47H113.405L113.419 36.5ZM117.255 45.012C119.131 45.012 120.195 43.78 120.195 41.932V41.722C120.167 39.902 119.089 38.46 117.255 38.46H115.365V45.012H117.255ZM128.039 36.5H130.657L134.339 47H132.001L131.357 44.9H127.171L126.443 47H124.287L128.039 36.5ZM127.647 43.206H130.923L129.243 38.404L127.647 43.206ZM139.158 38.474H136.148L136.162 36.5H144.352L144.338 38.474H141.258V47H139.172L139.158 38.474ZM147.027 36.5H149.085V47H147.027V36.5ZM157.386 47.154C154.166 47.154 152.122 45.068 152.122 41.82V41.582C152.164 38.404 154.25 36.332 157.372 36.332C160.466 36.332 162.552 38.376 162.608 41.512V41.82C162.608 45.068 160.564 47.154 157.386 47.154ZM157.372 45.208C159.276 45.208 160.55 43.85 160.55 41.82V41.512C160.522 39.594 159.22 38.264 157.372 38.264C155.482 38.264 154.208 39.58 154.18 41.512V41.82C154.18 43.878 155.44 45.208 157.372 45.208ZM165.562 36.5H168.04L172.506 43.654V36.5H174.452V47H172.492L167.508 39.048V47H165.562V36.5ZM71.866 65.154C68.646 65.154 66.602 63.068 66.602 59.82V59.582C66.644 56.404 68.73 54.332 71.852 54.332C74.946 54.332 77.032 56.376 77.088 59.512V59.82C77.088 63.068 75.044 65.154 71.866 65.154ZM71.852 63.208C73.756 63.208 75.03 61.85 75.03 59.82V59.512C75.002 57.594 73.7 56.264 71.852 56.264C69.962 56.264 68.688 57.58 68.66 59.512V59.82C68.66 61.878 69.92 63.208 71.852 63.208ZM80.0415 54.5H86.7195V56.418H82.0995V59.176H85.9215V60.954H82.0995V65H80.0415V54.5ZM96.0203 56.474H93.0103L93.0243 54.5H101.214L101.2 56.474H98.1203V65H96.0343L96.0203 56.474ZM108.72 65.154C105.5 65.154 103.456 63.068 103.456 59.82V59.582C103.498 56.404 105.584 54.332 108.706 54.332C111.8 54.332 113.886 56.376 113.942 59.512V59.82C113.942 63.068 111.898 65.154 108.72 65.154ZM108.706 63.208C110.61 63.208 111.884 61.85 111.884 59.82V59.512C111.856 57.594 110.554 56.264 108.706 56.264C106.816 56.264 105.542 57.58 105.514 59.512V59.82C105.514 61.878 106.774 63.208 108.706 63.208ZM122.565 60.352L125.183 65H122.971L120.843 60.87H118.911V65H116.937V54.5H120.857C123.349 54.5 124.581 55.508 124.581 57.552V57.72C124.581 58.966 124.007 59.848 122.929 60.212L122.565 60.352ZM120.717 59.19C121.963 59.19 122.607 58.728 122.607 57.832V57.65C122.607 56.782 121.977 56.348 120.731 56.348H118.911V59.19H120.717ZM132.848 65.154C129.628 65.154 127.584 63.068 127.584 59.82V59.582C127.626 56.404 129.712 54.332 132.834 54.332C135.928 54.332 138.014 56.376 138.07 59.512V59.82C138.07 63.068 136.026 65.154 132.848 65.154ZM132.834 63.208C134.738 63.208 136.012 61.85 136.012 59.82V59.512C135.984 57.594 134.682 56.264 132.834 56.264C130.944 56.264 129.67 57.58 129.642 59.512V59.82C129.642 61.878 130.902 63.208 132.834 63.208ZM141.023 54.5H143.501L147.967 61.654V54.5H149.913V65H147.953L142.969 57.048V65H141.023V54.5ZM155.52 56.474H152.51L152.524 54.5H160.714L160.7 56.474H157.62V65H155.534L155.52 56.474ZM168.22 65.154C165 65.154 162.956 63.068 162.956 59.82V59.582C162.998 56.404 165.084 54.332 168.206 54.332C171.3 54.332 173.386 56.376 173.442 59.512V59.82C173.442 63.068 171.398 65.154 168.22 65.154ZM168.206 63.208C170.11 63.208 171.384 61.85 171.384 59.82V59.512C171.356 57.594 170.054 56.264 168.206 56.264C166.316 56.264 165.042 57.58 165.014 59.512V59.82C165.014 61.878 166.274 63.208 168.206 63.208Z" fill="#F7F4EA"/>
</svg>
