<svg width="432" height="648" viewBox="0 0 432 648" fill="none" xmlns="http://www.w3.org/2000/svg">
<g opacity="0.1">
<path d="M38.5695 416.572L-30.8589 347.143L-77.1446 393.429L-123.43 347.143L-146.573 370.286L-100.287 416.572L-146.573 462.857L-123.43 486L-77.1446 439.714L-30.8589 486L-7.71614 462.857L-54.0018 416.572L-30.8589 393.429L15.4267 439.714L38.5695 416.572Z" fill="url(#paint0_linear_281_924)"/>
<path d="M15.4276 624.854L-54.0009 555.426L-7.71526 509.14L-54.0009 462.854L-30.858 439.711L15.4276 485.997L61.7131 439.711L84.856 462.854L38.5704 509.14L84.856 555.426L61.7131 578.568L15.4276 532.283L-7.71526 555.426L38.5703 601.711L15.4276 624.854Z" fill="url(#paint1_linear_281_924)"/>
<path d="M-169.714 439.717L-100.286 370.289L-123.428 347.146L-192.857 416.574L-169.714 439.717Z" fill="url(#paint2_linear_281_924)"/>
<path d="M-77.1446 347.143L-54.0018 324L-77.1446 300.857L-100.287 324L-77.1446 347.143Z" fill="url(#paint3_linear_281_924)"/>
<path d="M177.43 231.43L246.859 300.858L293.144 254.572L339.43 300.858L362.573 277.715L316.287 231.43L362.573 185.144L339.43 162.001L293.144 208.287L246.859 162.001L223.716 185.144L270.002 231.43L246.859 254.572L200.573 208.287L177.43 231.43Z" fill="url(#paint4_linear_281_924)"/>
<path d="M200.572 23.142L270.001 92.5706L223.715 138.856L270.001 185.142L246.858 208.285L200.572 161.999L154.287 208.285L131.144 185.142L177.43 138.856L131.144 92.5706L154.287 69.4277L200.572 115.714L223.715 92.5706L177.43 46.2849L200.572 23.142Z" fill="url(#paint5_linear_281_924)"/>
<path d="M385.714 208.284L316.286 277.712L339.428 300.855L408.857 231.427L385.714 208.284Z" fill="url(#paint6_linear_281_924)"/>
<path d="M293.144 300.858L270.002 324.001L293.144 347.144L316.287 324.001L293.144 300.858Z" fill="url(#paint7_linear_281_924)"/>
<path d="M200.574 393.424L131.145 462.852L177.431 509.138L131.145 555.424L154.288 578.567L200.574 532.281L246.859 578.567L270.002 555.424L223.717 509.138L270.002 462.852L246.859 439.71L200.574 485.995L177.431 462.852L223.717 416.567L200.574 393.424Z" fill="url(#paint8_linear_281_924)"/>
<path d="M15.4297 254.571L84.8582 185.142L38.5725 138.856L84.8582 92.5706L61.7153 69.4277L15.4297 115.714L-30.8559 69.4277L-53.9987 92.5706L-7.7131 138.856L-53.9987 185.142L-30.8559 208.285L15.4297 161.999L38.5725 185.142L-7.7131 231.428L15.4297 254.571Z" fill="url(#paint9_linear_281_924)"/>
<path d="M131.145 509.138L108.003 485.995L84.8598 509.138L108.003 532.281L131.145 509.138Z" fill="url(#paint10_linear_281_924)"/>
<path d="M408.859 416.573L339.43 486.001L293.144 439.716L246.859 486.001L223.716 462.859L270.002 416.573L223.716 370.287L246.859 347.144L293.144 393.43L339.43 347.144L362.573 370.287L316.287 416.573L339.43 439.716L385.716 393.43L408.859 416.573Z" fill="url(#paint11_linear_281_924)"/>
<path d="M-192.859 231.431L-123.43 162.002L-77.1446 208.288L-30.8589 162.002L-7.71613 185.145L-54.0017 231.431L-7.71613 277.717L-30.8589 300.86L-77.1446 254.574L-123.43 300.86L-146.573 277.717L-100.287 231.431L-123.43 208.288L-169.716 254.574L-192.859 231.431Z" fill="url(#paint12_linear_281_924)"/>
<path d="M223.715 601.715L154.287 532.286L131.144 555.429L200.572 624.858L223.715 601.715Z" fill="url(#paint13_linear_281_924)"/>
<path d="M-7.71141 46.2842L61.717 115.713L84.8598 92.57L15.4314 23.1413L-7.71141 46.2842Z" fill="url(#paint14_linear_281_924)"/>
<path d="M84.8582 138.856L108.001 161.999L131.144 138.856L108.001 115.714L84.8582 138.856Z" fill="url(#paint15_linear_281_924)"/>
<path d="M84.8582 138.856L108.001 161.999L131.144 138.856L108.001 115.714L84.8582 138.856Z" fill="url(#paint16_linear_281_924)"/>
<path d="M108.002 69.4267L61.7162 23.1409L84.859 -0.00195312L108.002 23.1409L131.145 -0.0019511L154.287 23.1409L108.002 69.4267Z" fill="url(#paint17_linear_281_924)"/>
<path d="M-146.572 323.999L-192.857 370.285L-216 347.142L-192.857 323.999L-216 300.856L-192.857 277.713L-146.572 323.999Z" fill="url(#paint18_linear_281_924)"/>
<path d="M108.002 578.573L154.287 624.858L131.145 648.001L108.002 624.858L84.859 648.001L61.7162 624.858L108.002 578.573Z" fill="url(#paint19_linear_281_924)"/>
<path d="M362.572 324L408.857 277.714L432 300.857L408.857 324L432 347.143L408.857 370.285L362.572 324Z" fill="url(#paint20_linear_281_924)"/>
</g>
<defs>
<linearGradient id="paint0_linear_281_924" x1="-216" y1="324" x2="108" y2="324" gradientUnits="userSpaceOnUse">
<stop stop-color="#C3B789"/>
<stop offset="1" stop-color="#5D5741"/>
</linearGradient>
<linearGradient id="paint1_linear_281_924" x1="-216" y1="324" x2="108" y2="324" gradientUnits="userSpaceOnUse">
<stop stop-color="#C3B789"/>
<stop offset="1" stop-color="#5D5741"/>
</linearGradient>
<linearGradient id="paint2_linear_281_924" x1="-216" y1="324" x2="108" y2="324" gradientUnits="userSpaceOnUse">
<stop stop-color="#C3B789"/>
<stop offset="1" stop-color="#5D5741"/>
</linearGradient>
<linearGradient id="paint3_linear_281_924" x1="-216" y1="324" x2="108" y2="324" gradientUnits="userSpaceOnUse">
<stop stop-color="#C3B789"/>
<stop offset="1" stop-color="#5D5741"/>
</linearGradient>
<linearGradient id="paint4_linear_281_924" x1="-216" y1="324" x2="108" y2="324" gradientUnits="userSpaceOnUse">
<stop stop-color="#C3B789"/>
<stop offset="1" stop-color="#5D5741"/>
</linearGradient>
<linearGradient id="paint5_linear_281_924" x1="-216" y1="324" x2="108" y2="324" gradientUnits="userSpaceOnUse">
<stop stop-color="#C3B789"/>
<stop offset="1" stop-color="#5D5741"/>
</linearGradient>
<linearGradient id="paint6_linear_281_924" x1="-216" y1="324" x2="108" y2="324" gradientUnits="userSpaceOnUse">
<stop stop-color="#C3B789"/>
<stop offset="1" stop-color="#5D5741"/>
</linearGradient>
<linearGradient id="paint7_linear_281_924" x1="-216" y1="324" x2="108" y2="324" gradientUnits="userSpaceOnUse">
<stop stop-color="#C3B789"/>
<stop offset="1" stop-color="#5D5741"/>
</linearGradient>
<linearGradient id="paint8_linear_281_924" x1="-216" y1="324" x2="108" y2="324" gradientUnits="userSpaceOnUse">
<stop stop-color="#C3B789"/>
<stop offset="1" stop-color="#5D5741"/>
</linearGradient>
<linearGradient id="paint9_linear_281_924" x1="-216" y1="324" x2="108" y2="324" gradientUnits="userSpaceOnUse">
<stop stop-color="#C3B789"/>
<stop offset="1" stop-color="#5D5741"/>
</linearGradient>
<linearGradient id="paint10_linear_281_924" x1="-216" y1="324" x2="108" y2="324" gradientUnits="userSpaceOnUse">
<stop stop-color="#C3B789"/>
<stop offset="1" stop-color="#5D5741"/>
</linearGradient>
<linearGradient id="paint11_linear_281_924" x1="-216" y1="324" x2="108" y2="324" gradientUnits="userSpaceOnUse">
<stop stop-color="#C3B789"/>
<stop offset="1" stop-color="#5D5741"/>
</linearGradient>
<linearGradient id="paint12_linear_281_924" x1="-216" y1="324" x2="108" y2="324" gradientUnits="userSpaceOnUse">
<stop stop-color="#C3B789"/>
<stop offset="1" stop-color="#5D5741"/>
</linearGradient>
<linearGradient id="paint13_linear_281_924" x1="-216" y1="324" x2="108" y2="324" gradientUnits="userSpaceOnUse">
<stop stop-color="#C3B789"/>
<stop offset="1" stop-color="#5D5741"/>
</linearGradient>
<linearGradient id="paint14_linear_281_924" x1="-216" y1="324" x2="108" y2="324" gradientUnits="userSpaceOnUse">
<stop stop-color="#C3B789"/>
<stop offset="1" stop-color="#5D5741"/>
</linearGradient>
<linearGradient id="paint15_linear_281_924" x1="-216" y1="324" x2="108" y2="324" gradientUnits="userSpaceOnUse">
<stop stop-color="#C3B789"/>
<stop offset="1" stop-color="#5D5741"/>
</linearGradient>
<linearGradient id="paint16_linear_281_924" x1="-216" y1="324" x2="108" y2="324" gradientUnits="userSpaceOnUse">
<stop stop-color="#C3B789"/>
<stop offset="1" stop-color="#5D5741"/>
</linearGradient>
<linearGradient id="paint17_linear_281_924" x1="-216" y1="324" x2="108" y2="324" gradientUnits="userSpaceOnUse">
<stop stop-color="#C3B789"/>
<stop offset="1" stop-color="#5D5741"/>
</linearGradient>
<linearGradient id="paint18_linear_281_924" x1="-216" y1="324" x2="108" y2="324" gradientUnits="userSpaceOnUse">
<stop stop-color="#C3B789"/>
<stop offset="1" stop-color="#5D5741"/>
</linearGradient>
<linearGradient id="paint19_linear_281_924" x1="-216" y1="324" x2="108" y2="324" gradientUnits="userSpaceOnUse">
<stop stop-color="#C3B789"/>
<stop offset="1" stop-color="#5D5741"/>
</linearGradient>
<linearGradient id="paint20_linear_281_924" x1="-216" y1="324" x2="108" y2="324" gradientUnits="userSpaceOnUse">
<stop stop-color="#C3B789"/>
<stop offset="1" stop-color="#5D5741"/>
</linearGradient>
</defs>
</svg>
