<svg width="30" height="15" viewBox="0 0 30 15" fill="none" xmlns="http://www.w3.org/2000/svg">
<path d="M26.29 3.715L24.4325 5.5725L26.29 7.43L24.4325 9.2875L26.29 11.145L30.005 7.43L26.29 3.715Z" fill="#564628"/>
<path d="M20.575 11.145L22.4325 9.2875L20.575 7.43L22.4325 5.5725L20.575 3.715L16.86 7.43L20.575 11.145Z" fill="#564628"/>
<path d="M11.2875 13.0025L13.145 14.86L15.0025 13.0025L16.86 14.86L18.7175 13.0025L15.0025 9.2875L11.2875 13.0025Z" fill="#564628"/>
<path d="M9.43 3.715L7.5725 5.5725L9.43 7.43L7.5725 9.2875L9.43 11.145L13.145 7.43L9.43 3.715Z" fill="#564628"/>
<path d="M18.7175 1.8575L16.86 5.16678e-07L15.0025 1.8575L13.145 0L11.2875 1.8575L15.0025 5.5725L18.7175 1.8575Z" fill="#564628"/>
<path d="M3.715 11.145L5.5725 9.2875L3.715 7.43L5.5725 5.5725L3.715 3.715L0 7.43L3.715 11.145Z" fill="#564628"/>
</svg>
