<svg width="160" height="160" viewBox="0 0 160 160" fill="none" xmlns="http://www.w3.org/2000/svg">
<g opacity="0.1">
<path d="M114.286 194.286L148.571 228.571L125.714 251.428L148.571 274.285L137.143 285.714L114.286 262.857L91.4286 285.714L80.0001 274.285L102.857 251.428L80.0001 228.571L91.4286 217.143L114.286 240L125.714 228.571L102.857 205.714L114.286 194.286Z" fill="url(#paint0_linear_292_142)"/>
<path d="M11.4305 205.714L45.7161 239.999L68.5732 217.142L91.4302 239.999L102.859 228.571L80.0017 205.714L102.859 182.857L91.4302 171.428L68.5732 194.285L45.7161 171.428L34.2876 182.857L57.1447 205.714L45.7161 217.142L22.8591 194.285L11.4305 205.714Z" fill="url(#paint1_linear_292_142)"/>
<path d="M102.856 297.141L137.141 262.856L148.57 274.284L114.284 308.57L102.856 297.141Z" fill="url(#paint2_linear_292_142)"/>
<path d="M148.571 251.428L160 240L171.428 251.428L160 262.857L148.571 251.428Z" fill="url(#paint3_linear_292_142)"/>
<path d="M205.713 125.713L171.428 91.4273L194.285 68.5703L171.428 45.7133L182.856 34.2848L205.713 57.1418L228.57 34.2848L239.999 45.7133L217.142 68.5703L239.999 91.4273L228.57 102.856L205.713 79.9988L194.285 91.4273L217.142 114.284L205.713 125.713Z" fill="url(#paint4_linear_292_142)"/>
<path d="M308.571 114.285L274.285 79.9992L251.428 102.856L228.571 79.9992L217.143 91.4277L240 114.285L217.143 137.142L228.571 148.57L251.428 125.713L274.285 148.57L285.714 137.142L262.857 114.285L274.285 102.856L297.142 125.713L308.571 114.285Z" fill="url(#paint5_linear_292_142)"/>
<path d="M217.143 22.8572L182.858 57.1427L171.429 45.7142L205.715 11.4287L217.143 22.8572Z" fill="url(#paint6_linear_292_142)"/>
<path d="M171.428 68.5703L159.999 79.9988L148.571 68.5703L159.999 57.1418L171.428 68.5703Z" fill="url(#paint7_linear_292_142)"/>
<path d="M125.717 114.284L91.4311 148.569L68.574 125.712L45.7169 148.569L34.2884 137.141L57.1455 114.284L34.2884 91.427L45.7169 79.9985L68.574 102.855L91.4311 79.9985L102.86 91.427L80.0025 114.284L91.4311 125.712L114.288 102.855L125.717 114.284Z" fill="url(#paint8_linear_292_142)"/>
<path d="M194.286 205.713L228.571 171.427L251.428 194.284L274.285 171.427L285.714 182.856L262.857 205.713L285.714 228.57L274.285 239.998L251.428 217.141L228.571 239.998L217.143 228.57L240 205.713L228.571 194.284L205.714 217.141L194.286 205.713Z" fill="url(#paint9_linear_292_142)"/>
<path d="M68.574 148.569L80.0025 159.998L68.574 171.426L57.1455 159.998L68.574 148.569Z" fill="url(#paint10_linear_292_142)"/>
<path d="M114.285 11.4279L79.9994 45.7133L102.857 68.5703L79.9994 91.4273L91.428 102.856L114.285 79.9988L137.142 102.856L148.571 91.4273L125.714 68.5703L148.571 45.7133L137.142 34.2848L114.285 57.1418L102.857 45.7133L125.714 22.8564L114.285 11.4279Z" fill="url(#paint11_linear_292_142)"/>
<path d="M205.713 308.571L239.998 274.285L217.141 251.428L239.998 228.571L228.57 217.143L205.713 240L182.856 217.143L171.427 228.571L194.284 251.428L171.427 274.285L182.856 285.714L205.713 262.857L217.141 274.285L194.284 297.142L205.713 308.571Z" fill="url(#paint12_linear_292_142)"/>
<path d="M22.8572 102.856L57.1428 137.142L45.7143 148.57L11.4287 114.285L22.8572 102.856Z" fill="url(#paint13_linear_292_142)"/>
<path d="M297.143 217.14L262.857 182.855L274.286 171.426L308.571 205.712L297.143 217.14Z" fill="url(#paint14_linear_292_142)"/>
<path d="M251.428 171.427L240 159.999L251.428 148.57L262.857 159.999L251.428 171.427Z" fill="url(#paint15_linear_292_142)"/>
<path d="M251.428 171.427L240 159.999L251.428 148.57L262.857 159.999L251.428 171.427Z" fill="url(#paint16_linear_292_142)"/>
<path d="M285.714 159.998L308.571 182.855L320 171.427L308.571 159.998L320 148.57L308.571 137.141L285.714 159.998Z" fill="url(#paint17_linear_292_142)"/>
<path d="M160 285.713L137.143 308.57L148.572 319.998L160 308.57L171.429 319.998L182.857 308.57L160 285.713Z" fill="url(#paint18_linear_292_142)"/>
<path d="M34.2856 159.998L11.4285 137.141L-1.52588e-05 148.57L11.4285 159.998L-1.52588e-05 171.427L11.4285 182.855L34.2856 159.998Z" fill="url(#paint19_linear_292_142)"/>
<path d="M160 34.2855L182.857 11.4285L171.429 0L160 11.4285L148.571 0L137.143 11.4285L160 34.2855Z" fill="url(#paint20_linear_292_142)"/>
</g>
<defs>
<linearGradient id="paint0_linear_292_142" x1="160" y1="159.999" x2="-2.31896e-05" y2="159.999" gradientUnits="userSpaceOnUse">
<stop stop-color="#AE863C"/>
<stop offset="1" stop-color="#483719"/>
</linearGradient>
<linearGradient id="paint1_linear_292_142" x1="160" y1="159.999" x2="-2.31896e-05" y2="159.999" gradientUnits="userSpaceOnUse">
<stop stop-color="#AE863C"/>
<stop offset="1" stop-color="#483719"/>
</linearGradient>
<linearGradient id="paint2_linear_292_142" x1="160" y1="159.999" x2="-2.31896e-05" y2="159.999" gradientUnits="userSpaceOnUse">
<stop stop-color="#AE863C"/>
<stop offset="1" stop-color="#483719"/>
</linearGradient>
<linearGradient id="paint3_linear_292_142" x1="160" y1="159.999" x2="-2.31896e-05" y2="159.999" gradientUnits="userSpaceOnUse">
<stop stop-color="#AE863C"/>
<stop offset="1" stop-color="#483719"/>
</linearGradient>
<linearGradient id="paint4_linear_292_142" x1="160" y1="159.999" x2="-2.31896e-05" y2="159.999" gradientUnits="userSpaceOnUse">
<stop stop-color="#AE863C"/>
<stop offset="1" stop-color="#483719"/>
</linearGradient>
<linearGradient id="paint5_linear_292_142" x1="160" y1="159.999" x2="-2.31896e-05" y2="159.999" gradientUnits="userSpaceOnUse">
<stop stop-color="#AE863C"/>
<stop offset="1" stop-color="#483719"/>
</linearGradient>
<linearGradient id="paint6_linear_292_142" x1="160" y1="159.999" x2="-2.31896e-05" y2="159.999" gradientUnits="userSpaceOnUse">
<stop stop-color="#AE863C"/>
<stop offset="1" stop-color="#483719"/>
</linearGradient>
<linearGradient id="paint7_linear_292_142" x1="160" y1="159.999" x2="-2.31896e-05" y2="159.999" gradientUnits="userSpaceOnUse">
<stop stop-color="#AE863C"/>
<stop offset="1" stop-color="#483719"/>
</linearGradient>
<linearGradient id="paint8_linear_292_142" x1="160" y1="159.999" x2="-2.31896e-05" y2="159.999" gradientUnits="userSpaceOnUse">
<stop stop-color="#AE863C"/>
<stop offset="1" stop-color="#483719"/>
</linearGradient>
<linearGradient id="paint9_linear_292_142" x1="160" y1="159.999" x2="-2.31896e-05" y2="159.999" gradientUnits="userSpaceOnUse">
<stop stop-color="#AE863C"/>
<stop offset="1" stop-color="#483719"/>
</linearGradient>
<linearGradient id="paint10_linear_292_142" x1="160" y1="159.999" x2="-2.31896e-05" y2="159.999" gradientUnits="userSpaceOnUse">
<stop stop-color="#AE863C"/>
<stop offset="1" stop-color="#483719"/>
</linearGradient>
<linearGradient id="paint11_linear_292_142" x1="160" y1="159.999" x2="-2.31896e-05" y2="159.999" gradientUnits="userSpaceOnUse">
<stop stop-color="#AE863C"/>
<stop offset="1" stop-color="#483719"/>
</linearGradient>
<linearGradient id="paint12_linear_292_142" x1="160" y1="159.999" x2="-2.31896e-05" y2="159.999" gradientUnits="userSpaceOnUse">
<stop stop-color="#AE863C"/>
<stop offset="1" stop-color="#483719"/>
</linearGradient>
<linearGradient id="paint13_linear_292_142" x1="160" y1="159.999" x2="-2.31896e-05" y2="159.999" gradientUnits="userSpaceOnUse">
<stop stop-color="#AE863C"/>
<stop offset="1" stop-color="#483719"/>
</linearGradient>
<linearGradient id="paint14_linear_292_142" x1="160" y1="159.999" x2="-2.31896e-05" y2="159.999" gradientUnits="userSpaceOnUse">
<stop stop-color="#AE863C"/>
<stop offset="1" stop-color="#483719"/>
</linearGradient>
<linearGradient id="paint15_linear_292_142" x1="160" y1="159.999" x2="-2.31896e-05" y2="159.999" gradientUnits="userSpaceOnUse">
<stop stop-color="#AE863C"/>
<stop offset="1" stop-color="#483719"/>
</linearGradient>
<linearGradient id="paint16_linear_292_142" x1="160" y1="159.999" x2="-2.31896e-05" y2="159.999" gradientUnits="userSpaceOnUse">
<stop stop-color="#AE863C"/>
<stop offset="1" stop-color="#483719"/>
</linearGradient>
<linearGradient id="paint17_linear_292_142" x1="160" y1="159.999" x2="-2.31896e-05" y2="159.999" gradientUnits="userSpaceOnUse">
<stop stop-color="#AE863C"/>
<stop offset="1" stop-color="#483719"/>
</linearGradient>
<linearGradient id="paint18_linear_292_142" x1="160" y1="159.999" x2="-2.31896e-05" y2="159.999" gradientUnits="userSpaceOnUse">
<stop stop-color="#AE863C"/>
<stop offset="1" stop-color="#483719"/>
</linearGradient>
<linearGradient id="paint19_linear_292_142" x1="160" y1="159.999" x2="-2.31896e-05" y2="159.999" gradientUnits="userSpaceOnUse">
<stop stop-color="#AE863C"/>
<stop offset="1" stop-color="#483719"/>
</linearGradient>
<linearGradient id="paint20_linear_292_142" x1="160" y1="159.999" x2="-2.31896e-05" y2="159.999" gradientUnits="userSpaceOnUse">
<stop stop-color="#AE863C"/>
<stop offset="1" stop-color="#483719"/>
</linearGradient>
</defs>
</svg>
