<svg width="15" height="234" viewBox="0 0 15 234" fill="none" xmlns="http://www.w3.org/2000/svg">
<g opacity="0.4">
<path d="M3.71502 3.71477L5.57252 5.57227L7.43002 3.71477L9.28752 5.57227L11.145 3.71477L7.43002 -0.000236034L3.71502 3.71477Z" fill="#AE863C"/>
<path d="M7.43005 99.9973L7.43005 7.57227" stroke="#AE863C" stroke-width="0.5"/>
<path d="M3.71502 105.713L5.57252 107.57L7.43002 105.713L9.28752 107.57L11.145 105.713L7.43002 101.998L3.71502 105.713Z" fill="#AE863C"/>
<path d="M11.145 111.428L9.2875 109.57L7.43 111.428L5.5725 109.57L3.715 111.428L7.43 115.143L11.145 111.428Z" fill="#AE863C"/>
<path d="M13.0025 120.715L14.86 118.858L13.0025 117L14.86 115.143L13.0025 113.285L9.2875 117L13.0025 120.715Z" fill="#AE863C"/>
<path d="M3.715 122.573L5.5725 124.43L7.43 122.573L9.2875 124.43L11.145 122.573L7.43 118.858L3.715 122.573Z" fill="#AE863C"/>
<path d="M1.8575 113.285L3.5429e-07 115.143L1.8575 117L0 118.858L1.8575 120.715L5.5725 117L1.8575 113.285Z" fill="#AE863C"/>
<path d="M11.145 128.287L9.28747 126.43L7.42997 128.287L5.57247 126.43L3.71497 128.287L7.42997 132.002L11.145 128.287Z" fill="#AE863C"/>
<path d="M7.43005 226.427L7.43005 134.002" stroke="#AE863C" stroke-width="0.5"/>
<path d="M11.145 230.285L9.28747 228.428L7.42997 230.285L5.57247 228.428L3.71497 230.285L7.42997 234L11.145 230.285Z" fill="#AE863C"/>
</g>
</svg>
