<svg width="320" height="16" viewBox="0 0 320 16" fill="none" xmlns="http://www.w3.org/2000/svg">
<g opacity="0.4">
<path d="M316.285 4.13933L314.427 5.99684L316.285 7.85434L314.427 9.71184L316.285 11.5693L320 7.85434L316.285 4.13933Z" fill="#AE863C"/>
<path d="M177.003 7.85449L312.428 7.85449" stroke="#AE863C" stroke-width="0.5"/>
<path d="M171.287 4.13933L169.43 5.99684L171.287 7.85434L169.43 9.71184L171.287 11.5693L175.002 7.85434L171.287 4.13933Z" fill="#AE863C"/>
<path d="M165.573 11.5698L167.43 9.7123L165.573 7.8548L167.43 5.9973L165.573 4.1398L161.858 7.8548L165.573 11.5698Z" fill="#AE863C"/>
<path d="M156.285 13.4273L158.143 15.2848L160 13.4273L161.858 15.2848L163.715 13.4273L160 9.7123L156.285 13.4273Z" fill="#AE863C"/>
<path d="M154.428 4.1398L152.57 5.99731L154.428 7.85481L152.57 9.71231L154.428 11.5698L158.143 7.85481L154.428 4.1398Z" fill="#AE863C"/>
<path d="M163.715 2.28231L161.858 0.424805L160 2.2823L158.143 0.424804L156.285 2.2823L160 5.99731L163.715 2.28231Z" fill="#AE863C"/>
<path d="M148.713 11.5696L150.57 9.71215L148.713 7.85465L150.57 5.99715L148.713 4.13965L144.998 7.85465L148.713 11.5696Z" fill="#AE863C"/>
<path d="M7.57254 7.85449L142.998 7.85449" stroke="#AE863C" stroke-width="0.5"/>
<path d="M3.71504 11.5696L5.57254 9.71215L3.71504 7.85465L5.57254 5.99715L3.71504 4.13965L3.84614e-05 7.85465L3.71504 11.5696Z" fill="#AE863C"/>
</g>
</svg>
