<svg width="16" height="172" viewBox="0 0 16 172" fill="none" xmlns="http://www.w3.org/2000/svg">
    <path d="M4.33074 27.7148L6.18824 29.5723L8.04574 27.7148L9.90324 29.5723L11.7607 27.7148L8.04574 23.9998L4.33074 27.7148Z" fill="#AE863C" fill-opacity="0.4"/>
    <path d="M8.0459 68.9973V31.5723" stroke="#AE863C" stroke-opacity="0.4" stroke-width="0.5"/>
    <path d="M4.33074 74.7123L6.18824 76.5698L8.04574 74.7123L9.90324 76.5698L11.7607 74.7123L8.04574 70.9973L4.33074 74.7123Z" fill="#AE863C" fill-opacity="0.4"/>
    <path d="M11.7612 80.4273L9.90371 78.5698L8.04621 80.4273L6.18871 78.5698L4.33121 80.4273L8.04621 84.1423L11.7612 80.4273Z" fill="#AE863C" fill-opacity="0.4"/>
    <path d="M13.6187 89.7148L15.4762 87.8573L13.6187 85.9998L15.4762 84.1423L13.6187 82.2848L9.90371 85.9998L13.6187 89.7148Z" fill="#AE863C" fill-opacity="0.4"/>
    <path d="M4.33121 91.5723L6.18871 93.4298L8.04621 91.5723L9.90371 93.4298L11.7612 91.5723L8.04621 87.8573L4.33121 91.5723Z" fill="#AE863C" fill-opacity="0.4"/>
    <path d="M2.47371 82.2848L0.616211 84.1423L2.47371 85.9998L0.616211 87.8573L2.47371 89.7148L6.18871 85.9998L2.47371 82.2848Z" fill="#AE863C" fill-opacity="0.4"/>
    <path d="M11.7611 97.2877L9.90355 95.4302L8.04606 97.2877L6.18855 95.4302L4.33105 97.2877L8.04606 101.003L11.7611 97.2877Z" fill="#AE863C" fill-opacity="0.4"/>
    <path d="M8.0459 140.427V103.002" stroke="#AE863C" stroke-opacity="0.4" stroke-width="0.5"/>
    <path d="M11.7611 144.285L9.90355 142.428L8.04606 144.285L6.18855 142.428L4.33105 144.285L8.04606 148L11.7611 144.285Z" fill="#AE863C" fill-opacity="0.4"/>
</svg>